<svg width="27" height="24" viewBox="0 0 27 24" fill="none" xmlns="http://www.w3.org/2000/svg">
<path d="M24.7066 0.00218327C24.3164 0.018929 23.9584 0.129648 23.6438 0.251971C23.3533 0.364887 22.3097 0.797637 20.6481 1.4853C18.9865 2.17296 16.7848 3.08471 14.4379 4.05863C9.74411 6.00647 4.46952 8.19755 1.76683 9.31978C1.67401 9.35793 1.29708 9.47179 0.880776 9.78553C0.463505 10.1 0 10.7825 0 11.5288C0 12.1309 0.304618 12.7441 0.672449 13.0952C1.04028 13.4463 1.41307 13.6104 1.72463 13.7327C2.63612 14.0908 5.45278 15.2007 6.67702 15.6842C7.1059 16.9523 8.11321 19.9395 8.34892 20.6747H8.34628C8.53802 21.2731 8.72491 21.6631 8.98445 21.9887C9.11421 22.1515 9.26911 22.299 9.45912 22.4154C9.53202 22.4601 9.61274 22.4947 9.69381 22.5273C9.70511 22.532 9.71676 22.5332 9.7281 22.5377L9.69645 22.5299C9.71996 22.5392 9.74106 22.553 9.76501 22.5611C9.80405 22.5744 9.83112 22.5739 9.88368 22.5845C10.0687 22.6407 10.2533 22.6782 10.4243 22.6782C11.1582 22.6782 11.6083 22.2853 11.6083 22.2853L11.6373 22.2645L14.8071 19.6183L18.6888 23.1596C18.7582 23.2564 19.3132 24 20.6007 24C21.3677 24 21.9769 23.628 22.3649 23.235C22.7529 22.8421 22.9946 22.44 23.1032 21.895V21.8898V21.8872C23.1787 21.5004 26.9059 3.04127 26.9059 3.04127L26.898 3.07249C27.0137 2.56313 27.0478 2.07054 26.9111 1.56856C26.7745 1.06658 26.4058 0.576695 25.9618 0.319622C25.5178 0.0625485 25.0967 -0.014563 24.7066 0.00218327ZM24.1739 2.91897C24.0275 3.64422 20.7106 20.0859 20.4952 21.1769L16.6398 17.6616C15.646 16.7551 14.0964 16.7232 13.064 17.5836L11.0967 19.2254L12.1463 15.1768C12.1463 15.1768 19.3866 7.94541 19.8227 7.52443C20.1738 7.18738 20.2473 7.06923 20.2473 6.952C20.2473 6.79613 20.166 6.684 19.9783 6.684C19.8096 6.684 19.5803 6.84357 19.4588 6.91818C17.9081 7.87207 11.2688 11.6054 8.05357 13.41C7.93279 13.3387 7.814 13.2646 7.68174 13.2123C6.62674 12.7957 4.59899 11.9936 3.41235 11.5262C6.21296 10.3632 11.0137 8.37031 15.4848 6.51487C17.8313 5.54112 20.0324 4.62855 21.6924 3.94154C23.0937 3.36162 23.8246 3.06135 24.1739 2.91897ZM20.453 21.3694H20.4556L20.453 21.3798C20.4553 21.3685 20.4514 21.3776 20.453 21.3694Z" fill="white"/>
</svg>
